mtllib mmm.mtl
g w
v -28.430756 47.602219 65.485611
v -23.823273 55.912064 65.485611
v 0.198425 6.040909 65.485611
v 0.154007 17.516785 65.485611
v 28.368637 47.604645 65.485611
v 23.720123 55.912064 65.485611
v 38.829193 46.531906 65.485611
v 44.389374 55.912064 65.485611
v 74.980499 0.000000 65.485611
v 57.170074 10.557434 65.485611
v 50.488556 0.000000 65.485611
v 32.402161 38.188248 65.485611
v 4.634079 8.522934 65.485611
v 9.456116 0.000000 65.485611
v -4.553818 8.676208 65.485611
v -9.456085 0.000000 65.485611
v -33.362518 50.388779 65.485611
v -32.710114 38.601959 65.485611
v -50.488525 0.000000 65.485611
v -57.235596 10.535690 65.485611
v -74.980469 0.000000 65.485611
v -39.050690 46.745941 65.485611
v -44.492828 55.912064 65.485611
v 32.996826 50.223251 65.485611
v -23.823273 55.912064 65.485611
v 0.154007 17.516785 65.485611
v -23.823273 55.912064 50.485611
v 0.154007 17.516785 50.485611
v 0.154007 17.516785 65.485611
v 23.720123 55.912064 65.485611
v 0.154007 17.516785 50.485611
v 23.720123 55.912064 50.485611
v 23.720123 55.912064 65.485611
v 44.389374 55.912064 65.485611
v 23.720123 55.912064 50.485611
v 44.389374 55.912064 50.485611
v 44.389374 55.912064 65.485611
v 74.980499 0.000000 65.485611
v 44.389374 55.912064 50.485611
v 74.980499 0.000000 50.485611
v 74.980499 0.000000 65.485611
v 50.488556 0.000000 65.485611
v 74.980499 0.000000 50.485611
v 50.488556 0.000000 50.485611
v 50.488556 0.000000 65.485611
v 32.402161 38.188248 65.485611
v 50.488556 0.000000 50.485611
v 32.402161 38.188248 50.485611
v 32.402161 38.188248 65.485611
v 9.456116 0.000000 65.485611
v 32.402161 38.188248 50.485611
v 9.456116 0.000000 50.485611
v 9.456116 0.000000 65.485611
v -9.456085 0.000000 65.485611
v 9.456116 0.000000 50.485611
v -9.456085 0.000000 50.485611
v -9.456085 0.000000 65.485611
v -32.710114 38.601959 65.485611
v -9.456085 0.000000 50.485611
v -32.710114 38.601959 50.485611
v -32.710114 38.601959 65.485611
v -50.488525 0.000000 65.485611
v -32.710114 38.601959 50.485611
v -50.488525 0.000000 50.485611
v -50.488525 0.000000 65.485611
v -74.980469 0.000000 65.485611
v -50.488525 0.000000 50.485611
v -74.980469 0.000000 50.485611
v -74.980469 0.000000 65.485611
v -44.492828 55.912064 65.485611
v -74.980469 0.000000 50.485611
v -44.492828 55.912064 50.485611
v -44.492828 55.912064 65.485611
v -23.823273 55.912064 65.485611
v -44.492828 55.912064 50.485611
v -23.823273 55.912064 50.485611
v -28.430756 47.602219 50.485611
v -23.823273 55.912064 50.485611
v 0.198425 6.040909 50.485611
v 0.154007 17.516785 50.485611
v 28.368637 47.604645 50.485611
v 23.720123 55.912064 50.485611
v 38.829193 46.531906 50.485611
v 44.389374 55.912064 50.485611
v 74.980499 0.000000 50.485611
v 57.170074 10.557434 50.485611
v 50.488556 0.000000 50.485611
v 32.402161 38.188248 50.485611
v 4.634079 8.522934 50.485611
v 9.456116 0.000000 50.485611
v -4.553818 8.676208 50.485611
v -9.456085 0.000000 50.485611
v -33.362518 50.388779 50.485611
v -32.710114 38.601959 50.485611
v -50.488525 0.000000 50.485611
v -57.235596 10.535690 50.485611
v -74.980469 0.000000 50.485611
v -39.050690 46.745941 50.485611
v -44.492828 55.912064 50.485611
v 32.996826 50.223251 50.485611
vt 0.689588 0.148623
vt 0.658863 0.000000
vt 0.498677 0.891957
vt 0.498973 0.686708
vt 0.310827 0.148580
vt 0.341825 0.000000
vt 0.241071 0.167766
vt 0.203994 0.000000
vt 0.000000 1.000000
vt 0.118767 0.811178
vt 0.163322 1.000000
vt 0.283929 0.316994
vt 0.469098 0.847565
vt 0.436943 1.000000
vt 0.530367 0.844824
vt 0.563057 1.000000
vt 0.722475 0.098785
vt 0.718124 0.309595
vt 0.836678 1.000000
vt 0.881670 0.811567
vt 1.000000 1.000000
vt 0.760406 0.163938
vt 0.796696 0.000000
vt 0.279964 0.101746
vt 1.000000 1.000000
vt 0.909708 1.000000
vt 1.000000 0.000000
vt 0.909708 0.000000
vt 0.909708 1.000000
vt 0.819848 1.000000
vt 0.909708 0.000000
vt 0.819848 0.000000
vt 0.819848 1.000000
vt 0.778620 1.000000
vt 0.819848 0.000000
vt 0.778620 0.000000
vt 0.778620 1.000000
vt 0.651494 1.000000
vt 0.778620 0.000000
vt 0.651494 0.000000
vt 0.651494 1.000000
vt 0.602641 1.000000
vt 0.651494 0.000000
vt 0.602641 0.000000
vt 0.602641 1.000000
vt 0.518357 1.000000
vt 0.602641 0.000000
vt 0.518357 0.000000
vt 0.518357 1.000000
vt 0.429492 1.000000
vt 0.518357 0.000000
vt 0.429492 0.000000
vt 0.429492 1.000000
vt 0.391769 1.000000
vt 0.429492 0.000000
vt 0.391769 0.000000
vt 0.391769 1.000000
vt 0.301880 1.000000
vt 0.391769 0.000000
vt 0.301880 0.000000
vt 0.301880 1.000000
vt 0.217109 1.000000
vt 0.301880 0.000000
vt 0.217109 0.000000
vt 0.217109 1.000000
vt 0.168256 1.000000
vt 0.217109 0.000000
vt 0.168256 0.000000
vt 0.168256 1.000000
vt 0.041229 1.000000
vt 0.168256 0.000000
vt 0.041229 0.000000
vt 0.041229 1.000000
vt 0.000000 1.000000
vt 0.041229 0.000000
vt 0.000000 0.000000
vt 0.689588 0.148623
vt 0.658863 0.000000
vt 0.498677 0.891957
vt 0.498973 0.686708
vt 0.310827 0.148580
vt 0.341825 0.000000
vt 0.241071 0.167766
vt 0.203994 0.000000
vt 0.000000 1.000000
vt 0.118767 0.811178
vt 0.163322 1.000000
vt 0.283929 0.316994
vt 0.469098 0.847565
vt 0.436943 1.000000
vt 0.530367 0.844824
vt 0.563057 1.000000
vt 0.722475 0.098785
vt 0.718124 0.309595
vt 0.836678 1.000000
vt 0.881670 0.811567
vt 1.000000 1.000000
vt 0.760406 0.163938
vt 0.796696 0.000000
vt 0.279964 0.101746
vn 0.000000 0.000000 1.000000
vn 0.000000 0.000000 1.000000
vn 0.000000 0.000000 1.000000
vn 0.000000 0.000000 1.000000
vn 0.000000 0.000000 1.000000
vn 0.000000 0.000000 1.000000
vn 0.000000 0.000000 1.000000
vn 0.000000 0.000000 1.000000
vn 0.000000 0.000000 1.000000
vn 0.000000 0.000000 1.000000
vn 0.000000 0.000000 1.000000
vn 0.000000 0.000000 1.000000
vn 0.000000 0.000000 1.000000
vn 0.000000 0.000000 1.000000
vn 0.000000 0.000000 1.000000
vn 0.000000 0.000000 1.000000
vn 0.000000 0.000000 1.000000
vn 0.000000 0.000000 1.000000
vn 0.000000 0.000000 1.000000
vn 0.000000 0.000000 1.000000
vn 0.000000 0.000000 1.000000
vn 0.000000 0.000000 1.000000
vn 0.000000 0.000000 1.000000
vn 0.000000 0.000000 1.000000
vn 0.848194 0.529685 0.000000
vn 0.848194 0.529685 0.000000
vn 0.848194 0.529685 0.000000
vn 0.848194 0.529685 0.000000
vn -0.850827 0.522218 0.000000
vn -0.850827 0.522218 0.000000
vn -0.850827 0.522218 0.000000
vn -0.850827 0.522218 0.000000
vn -0.000000 1.000000 0.000000
vn -0.000000 1.000000 0.000000
vn -0.000000 1.000000 0.000000
vn -0.000000 1.000000 0.000000
vn 0.877277 0.479984 0.000000
vn 0.877277 0.479984 0.000000
vn 0.877277 0.479984 0.000000
vn 0.877277 0.479984 0.000000
vn 0.000000 -1.000000 0.000000
vn 0.000000 -1.000000 0.000000
vn 0.000000 -1.000000 0.000000
vn 0.000000 -1.000000 0.000000
vn -0.902233 -0.427308 0.000000
vn -0.902233 -0.427308 0.000000
vn -0.902233 -0.427308 0.000000
vn -0.902233 -0.427308 0.000000
vn 0.857165 -0.515042 0.000000
vn 0.857165 -0.515042 0.000000
vn 0.857165 -0.515042 0.000000
vn 0.857165 -0.515042 0.000000
vn 0.000000 -1.000000 0.000000
vn 0.000000 -1.000000 0.000000
vn 0.000000 -1.000000 0.000000
vn 0.000000 -1.000000 0.000000
vn -0.856583 -0.516010 0.000000
vn -0.856583 -0.516010 0.000000
vn -0.856583 -0.516010 0.000000
vn -0.856583 -0.516010 0.000000
vn 0.908298 -0.418323 0.000000
vn 0.908298 -0.418323 0.000000
vn 0.908298 -0.418323 0.000000
vn 0.908298 -0.418323 0.000000
vn 0.000000 -1.000000 0.000000
vn 0.000000 -1.000000 0.000000
vn 0.000000 -1.000000 0.000000
vn 0.000000 -1.000000 0.000000
vn -0.876474 0.477922 0.000000
vn -0.876474 0.477922 0.000000
vn -0.876474 0.477922 0.000000
vn -0.876474 0.477922 0.000000
vn -0.000000 1.000000 0.000000
vn -0.000000 1.000000 0.000000
vn -0.000000 1.000000 0.000000
vn -0.000000 1.000000 0.000000
vn -0.000000 0.000000 -1.000000
vn -0.000000 0.000000 -1.000000
vn -0.000000 0.000000 -1.000000
vn -0.000000 0.000000 -1.000000
vn -0.000000 0.000000 -1.000000
vn -0.000000 0.000000 -1.000000
vn -0.000000 0.000000 -1.000000
vn -0.000000 0.000000 -1.000000
vn -0.000000 0.000000 -1.000000
vn -0.000000 0.000000 -1.000000
vn -0.000000 0.000000 -1.000000
vn -0.000000 0.000000 -1.000000
vn -0.000000 0.000000 -1.000000
vn -0.000000 0.000000 -1.000000
vn -0.000000 0.000000 -1.000000
vn -0.000000 0.000000 -1.000000
vn -0.000000 0.000000 -1.000000
vn -0.000000 0.000000 -1.000000
vn -0.000000 0.000000 -1.000000
vn -0.000000 0.000000 -1.000000
vn -0.000000 0.000000 -1.000000
vn -0.000000 0.000000 -1.000000
vn -0.000000 0.000000 -1.000000
vn -0.000000 0.000000 -1.000000
usemtl w Front Inflation Material
f 3/3/3 4/4/4 15/15/15
f 6/6/6 4/4/4 5/5/5
f 7/7/7 8/8/8 24/24/24
f 9/9/9 8/8/8 10/10/10
f 11/11/11 9/9/9 10/10/10
f 24/24/24 12/12/12 7/7/7
f 14/14/14 12/12/12 13/13/13
f 15/15/15 16/16/16 3/3/3
f 17/17/17 18/18/18 1/1/1
f 19/19/19 18/18/18 20/20/20
f 21/21/21 19/19/19 20/20/20
f 22/22/22 23/23/23 20/20/20
f 1/1/1 2/2/2 17/17/17
f 15/15/15 4/4/4 1/1/1
f 2/2/2 1/1/1 4/4/4
f 5/5/5 4/4/4 13/13/13
f 3/3/3 13/13/13 4/4/4
f 8/8/8 6/6/6 24/24/24
f 5/5/5 24/24/24 6/6/6
f 7/7/7 10/10/10 8/8/8
f 7/7/7 12/12/12 10/10/10
f 11/11/11 10/10/10 12/12/12
f 13/13/13 12/12/12 5/5/5
f 24/24/24 5/5/5 12/12/12
f 16/16/16 14/14/14 3/3/3
f 13/13/13 3/3/3 14/14/14
f 1/1/1 18/18/18 15/15/15
f 16/16/16 15/15/15 18/18/18
f 20/20/20 18/18/18 22/22/22
f 17/17/17 22/22/22 18/18/18
f 21/21/21 20/20/20 23/23/23
f 2/2/2 23/23/23 17/17/17
f 22/22/22 17/17/17 23/23/23
usemtl w Front Bevel Material
f 1/1/1 1/1/1 1/1/1
usemtl w Extrusion Material
f 27/27/27 25/25/25 26/26/26
f 27/27/27 26/26/26 28/28/28
f 31/31/31 29/29/29 30/30/30
f 31/31/31 30/30/30 32/32/32
f 35/35/35 33/33/33 34/34/34
f 35/35/35 34/34/34 36/36/36
f 39/39/39 37/37/37 38/38/38
f 39/39/39 38/38/38 40/40/40
f 43/43/43 41/41/41 42/42/42
f 43/43/43 42/42/42 44/44/44
f 47/47/47 45/45/45 46/46/46
f 47/47/47 46/46/46 48/48/48
f 51/51/51 49/49/49 50/50/50
f 51/51/51 50/50/50 52/52/52
f 55/55/55 53/53/53 54/54/54
f 55/55/55 54/54/54 56/56/56
f 59/59/59 57/57/57 58/58/58
f 59/59/59 58/58/58 60/60/60
f 63/63/63 61/61/61 62/62/62
f 63/63/63 62/62/62 64/64/64
f 67/67/67 65/65/65 66/66/66
f 67/67/67 66/66/66 68/68/68
f 71/71/71 69/69/69 70/70/70
f 71/71/71 70/70/70 72/72/72
f 75/75/75 73/73/73 74/74/74
f 75/75/75 74/74/74 76/76/76
usemtl w Back Bevel Material
f 1/1/1 1/1/1 1/1/1
usemtl w Back Inflation Material
f 80/80/80 79/79/79 91/91/91
f 80/80/80 82/82/82 81/81/81
f 84/84/84 83/83/83 100/100/100
f 84/84/84 85/85/85 86/86/86
f 85/85/85 87/87/87 86/86/86
f 88/88/88 100/100/100 83/83/83
f 88/88/88 90/90/90 89/89/89
f 92/92/92 91/91/91 79/79/79
f 94/94/94 93/93/93 77/77/77
f 94/94/94 95/95/95 96/96/96
f 95/95/95 97/97/97 96/96/96
f 99/99/99 98/98/98 96/96/96
f 78/78/78 77/77/77 93/93/93
f 80/80/80 91/91/91 77/77/77
f 77/77/77 78/78/78 80/80/80
f 80/80/80 81/81/81 89/89/89
f 89/89/89 79/79/79 80/80/80
f 82/82/82 84/84/84 100/100/100
f 100/100/100 81/81/81 82/82/82
f 86/86/86 83/83/83 84/84/84
f 88/88/88 83/83/83 86/86/86
f 86/86/86 87/87/87 88/88/88
f 88/88/88 89/89/89 81/81/81
f 81/81/81 100/100/100 88/88/88
f 90/90/90 92/92/92 79/79/79
f 79/79/79 89/89/89 90/90/90
f 94/94/94 77/77/77 91/91/91
f 91/91/91 92/92/92 94/94/94
f 94/94/94 96/96/96 98/98/98
f 98/98/98 93/93/93 94/94/94
f 96/96/96 97/97/97 99/99/99
f 99/99/99 78/78/78 93/93/93
f 93/93/93 98/98/98 99/99/99
